<?xml version="1.0" standalone="no"?>
<!DOCTYPE svg PUBLIC "-//W3C//DTD SVG 20010904//EN"
 "http://www.w3.org/TR/2001/REC-SVG-20010904/DTD/svg10.dtd">
<svg version="1.0" xmlns="http://www.w3.org/2000/svg"
 width="1500.000000pt" height="500.000000pt" viewBox="0 0 1500.000000 500.000000"
 preserveAspectRatio="xMidYMid meet">

<g transform="translate(0.000000,500.000000) scale(0.100000,-0.100000)"
fill="#000000" stroke="none">
<path d="M13764 3979 c-3 -6 -1 -167 5 -357 6 -191 16 -498 22 -682 11 -385
14 -412 41 -437 19 -17 21 -17 39 6 17 20 19 40 19 155 0 72 -4 214 -10 316
-5 102 -14 354 -20 560 -6 206 -13 385 -16 397 -2 13 -18 29 -34 38 -35 18
-37 18 -46 4z"/>
<path d="M8024 3869 c-3 -6 -1 -167 5 -357 6 -191 16 -498 22 -682 11 -385 14
-412 41 -437 19 -17 21 -17 39 6 17 20 19 40 19 155 0 72 -4 214 -10 316 -5
102 -14 354 -20 560 -6 206 -13 385 -16 397 -2 13 -18 29 -34 38 -35 18 -37
18 -46 4z"/>
<path d="M900 3823 c-227 -44 -401 -134 -546 -281 -183 -186 -269 -388 -281
-658 -14 -320 68 -534 351 -914 139 -188 609 -772 625 -778 4 -1 75 82 158
185 83 104 200 249 259 323 235 292 360 473 443 639 77 152 81 175 65 322 -16
145 -50 390 -66 469 -24 125 -112 250 -176 250 -94 0 -190 -160 -263 -435 -25
-97 -32 -147 -36 -261 l-6 -142 -49 -10 c-57 -11 -65 -3 -54 50 9 45 -12 341
-31 422 -19 87 -67 203 -96 234 -48 51 -112 66 -166 37 -16 -8 -47 -35 -69
-60 -151 -171 -191 -549 -97 -917 l7 -28 -55 0 -56 0 -6 43 c-14 107 -95 780
-101 845 l-7 72 34 0 c34 0 74 -20 95 -48 8 -11 14 -5 28 31 23 60 86 130 141
157 87 42 212 26 311 -41 45 -31 101 -100 111 -136 3 -13 8 -23 12 -22 3 0 19
27 34 60 58 122 211 247 327 267 l45 8 -48 46 c-117 115 -277 207 -432 248
-61 17 -116 23 -230 25 -82 2 -161 1 -175 -2z"/>
<path d="M8983 3603 c4 -192 21 -449 65 -972 17 -201 17 -204 44 -224 14 -11
34 -17 42 -14 20 8 20 83 2 357 -7 107 -12 196 -11 198 1 2 31 -28 66 -65 35
-37 109 -115 164 -173 55 -58 145 -154 199 -213 55 -59 105 -107 112 -107 14
0 34 30 34 52 0 8 -108 131 -240 273 -173 186 -240 265 -240 282 0 13 17 47
39 76 39 53 203 215 247 243 33 22 30 32 -12 50 l-36 15 -71 -65 c-40 -35
-116 -107 -169 -159 l-97 -95 -5 62 c-3 33 -15 190 -25 347 -11 157 -23 292
-26 301 -7 17 -47 38 -72 38 -13 0 -15 -24 -10 -207z"/>
<path d="M1830 3483 c45 -19 97 -68 120 -113 59 -117 115 -554 135 -1070 4
-91 11 -171 17 -177 19 -23 68 -15 99 16 34 34 33 27 19 291 -31 563 -104 884
-232 1007 -51 50 -83 63 -146 62 l-47 -1 35 -15z"/>
<path d="M10820 3333 c0 -71 -4 -133 -8 -140 -4 -7 -59 -14 -145 -18 -76 -4
-140 -12 -143 -17 -3 -5 -3 -29 1 -54 l6 -44 127 2 127 3 -5 -90 c-3 -49 -5
-160 -5 -245 0 -147 1 -158 27 -213 50 -105 130 -152 263 -150 81 1 147 24
169 58 9 14 16 26 16 27 0 2 -39 3 -88 3 -151 1 -233 40 -277 131 -26 55 -17
242 19 391 l28 112 126 3 127 3 3 43 3 42 -130 0 -131 0 0 50 c0 27 5 83 11
125 14 95 8 105 -67 105 l-54 0 0 -127z"/>
<path d="M5523 3309 c-24 -11 -57 -37 -75 -57 -37 -43 -90 -155 -109 -232
l-14 -55 -6 85 c-8 105 -28 157 -64 166 -51 13 -55 -3 -44 -191 5 -93 13 -273
17 -400 l7 -230 40 0 40 0 7 140 c15 278 76 509 167 632 34 47 113 93 159 93
49 0 114 -41 149 -93 73 -109 95 -241 92 -549 -2 -125 0 -230 3 -233 3 -4 21
-2 39 3 l34 8 3 222 c2 204 0 233 -23 346 -34 169 -59 230 -120 293 -57 58
-96 73 -195 73 -46 0 -77 -6 -107 -21z"/>
<path d="M13063 3315 c-76 -21 -188 -80 -238 -126 -51 -47 -75 -93 -75 -143 0
-32 3 -36 40 -47 22 -7 40 -13 40 -14 0 -1 9 -54 19 -116 37 -212 44 -313 45
-614 2 -305 4 -324 41 -355 30 -25 43 7 59 145 17 143 35 383 33 430 l-2 30
80 7 c233 20 441 183 476 372 27 148 -62 329 -195 395 -104 51 -219 64 -323
36z m193 -106 c132 -24 220 -94 250 -197 28 -94 0 -182 -83 -266 -76 -77 -206
-129 -375 -150 l-47 -5 -14 67 c-9 37 -23 105 -32 152 -9 47 -25 128 -36 181
-21 101 -18 129 17 160 67 58 194 81 320 58z"/>
<path d="M4685 3257 c-3 -18 -12 -84 -20 -147 -29 -232 -67 -505 -71 -519 -2
-7 -41 45 -85 115 -45 71 -123 194 -173 274 -165 262 -178 280 -206 280 -21 0
-50 -14 -79 -37 -2 -2 12 -27 31 -55 19 -29 138 -213 263 -408 l228 -355 -1
-105 c0 -97 -15 -193 -56 -385 -17 -78 -20 -153 -7 -174 12 -19 57 -7 71 19 6
11 29 150 51 308 21 158 55 400 74 537 66 474 85 629 76 638 -5 5 -28 18 -50
28 l-40 18 -6 -32z"/>
<path d="M11946 3262 c-12 -59 -86 -608 -86 -638 0 -18 -3 -35 -7 -37 -5 -3
-69 91 -143 209 -241 382 -293 459 -317 462 -31 4 -86 -26 -79 -43 5 -13 136
-219 421 -663 l98 -152 -6 -123 c-3 -73 -19 -197 -40 -311 -36 -192 -36 -227
-3 -239 25 -10 43 2 59 36 20 44 214 1454 204 1480 -2 7 -25 20 -50 29 l-46
17 -5 -27z"/>
<path d="M2663 3269 c-40 -5 -90 -17 -112 -28 -43 -22 -91 -74 -91 -98 0 -23
76 -11 170 26 124 48 141 49 188 7 71 -64 85 -114 90 -321 4 -177 4 -180 -15
-163 -65 59 -238 85 -348 53 -149 -43 -202 -199 -101 -300 59 -58 111 -70 280
-62 179 9 286 38 303 85 15 37 -30 503 -58 607 -14 52 -52 126 -76 147 -47 43
-126 59 -230 47z m147 -607 c38 -18 103 -105 98 -131 -4 -22 -107 -70 -176
-82 -143 -25 -282 52 -244 135 6 14 29 37 52 52 79 52 191 63 270 26z"/>
<path d="M6321 3269 c-89 -11 -170 -54 -196 -101 -11 -20 -16 -40 -12 -44 10
-10 94 12 185 47 125 50 178 34 227 -65 29 -59 44 -172 45 -328 0 -87 -8 -110
-29 -84 -25 30 -113 57 -200 63 -188 12 -296 -62 -293 -203 1 -77 54 -140 137
-163 121 -33 414 5 480 62 l26 22 -11 160 c-17 254 -49 445 -87 520 -48 96
-135 132 -272 114z m139 -604 c33 -17 73 -66 89 -108 10 -25 8 -31 -11 -47
-13 -11 -50 -29 -83 -42 -120 -45 -269 -18 -310 56 -18 33 -19 38 -5 63 35 62
141 107 233 98 32 -2 71 -12 87 -20z"/>
<path d="M8541 3270 c-29 -5 -73 -16 -97 -25 -49 -18 -104 -75 -104 -106 0
-19 4 -20 38 -14 20 4 77 22 126 41 110 43 151 44 193 5 68 -62 92 -162 93
-383 0 -96 -7 -120 -29 -94 -23 27 -112 57 -189 63 -91 7 -177 -9 -224 -40
-92 -62 -105 -202 -26 -273 62 -57 148 -72 328 -55 125 11 202 32 238 64 25
23 25 12 -4 352 -17 200 -33 285 -67 351 -35 68 -66 94 -134 110 -63 15 -64
15 -142 4z m145 -605 c34 -14 76 -63 93 -108 10 -25 8 -31 -11 -47 -100 -82
-324 -84 -388 -3 -38 49 -20 95 54 138 75 44 174 52 252 20z"/>
<path d="M10070 3270 c-103 -16 -177 -62 -196 -122 -3 -11 -3 -22 0 -25 8 -8
90 14 178 48 101 38 137 38 182 -2 62 -54 79 -117 84 -316 l4 -172 -72 37
c-71 36 -75 37 -184 37 -102 0 -115 -2 -161 -27 -71 -39 -89 -68 -93 -156 -4
-65 -2 -75 22 -106 14 -19 47 -45 73 -57 44 -22 60 -24 185 -23 151 2 262 21
317 55 l34 21 -6 131 c-12 275 -52 507 -100 590 -44 75 -142 107 -267 87z
m153 -607 c29 -14 82 -80 93 -116 8 -25 -20 -49 -96 -78 -153 -60 -350 4 -324
106 8 34 84 85 149 101 56 14 136 9 178 -13z"/>
<path d="M3421 3204 c-147 -40 -291 -149 -309 -237 -11 -56 -7 -65 38 -78 l38
-12 17 -88 c39 -216 48 -322 50 -634 1 -314 4 -335 40 -365 13 -11 18 -11 30
1 18 19 44 240 52 444 l6 162 81 6 c99 7 177 33 272 92 93 58 166 138 194 213
31 80 25 203 -12 284 -79 171 -299 265 -497 212z m287 -129 c188 -84 222 -286
74 -438 -26 -27 -73 -62 -105 -78 -56 -29 -177 -62 -269 -73 l-46 -5 -20 87
c-46 197 -83 407 -77 434 16 69 121 109 275 105 90 -3 114 -8 168 -32z"/>
<path d="M7323 3205 c-76 -21 -188 -80 -238 -126 -51 -47 -75 -93 -75 -143 0
-32 3 -36 40 -47 22 -7 40 -13 40 -14 0 -1 9 -54 19 -116 37 -212 44 -313 45
-614 2 -305 4 -324 41 -355 30 -25 43 7 59 145 17 143 35 383 33 430 l-2 30
80 7 c233 20 441 183 476 372 27 148 -62 329 -195 395 -104 51 -219 64 -323
36z m193 -106 c132 -24 220 -94 250 -197 28 -94 0 -182 -83 -266 -76 -77 -206
-129 -375 -150 l-47 -5 -14 67 c-9 37 -23 105 -32 152 -9 47 -25 128 -36 181
-21 101 -18 129 17 160 67 58 194 81 320 58z"/>
<path d="M12372 2474 c-45 -31 -16 -104 43 -104 34 0 65 28 65 60 0 32 -31 60
-65 60 -11 0 -31 -7 -43 -16z"/>
</g>
</svg>
